<svg width="41" height="43" viewBox="0 0 41 43" fill="none" xmlns="http://www.w3.org/2000/svg">
<path d="M38.4167 37.6614H38.4271H38.4167ZM7.03125 2.7031C6.63542 2.7031 6.26042 2.88539 5.85417 3.24477C5.80729 3.28643 5.22396 3.84373 4.84375 4.2031L4.51563 4.52081C2.57813 6.33331 1.69792 9.60414 2.27604 12.8489C2.46354 13.8958 2.76563 14.9844 3.17188 16.0729C5.21354 21.5885 9.09896 26.3802 12 29.4323C14.8854 32.5052 19.4479 36.6562 24.8229 39C25.8906 39.4635 26.9531 39.8229 27.9896 40.0677C31.1875 40.8177 34.4844 40.1146 36.3958 38.2708L36.7135 37.9687C37.0833 37.6198 37.6615 37.0677 37.7448 36.9896C38.9323 35.7604 38.3385 34.7396 35.9531 32.3073L35.3594 31.6927C33.849 30.1198 31.3125 27.4844 29.1667 27.7448C28.5885 27.8125 27.9792 28.2396 27.3333 28.6875C26.6979 29.1354 26.0365 29.5989 25.2448 29.8489C23.1146 30.526 20.9583 30.0833 19.1667 28.5989C18.0937 27.7135 17.0052 26.6771 16.0156 25.6041C15.0104 24.5677 14.0365 23.4219 13.2135 22.3021C11.8385 20.4271 11.5104 18.2396 12.2969 16.1458C12.5885 15.3646 13.0833 14.7291 13.5677 14.1146C14.0469 13.4896 14.5052 12.9062 14.6042 12.3229C14.974 10.1875 12.4896 7.51039 11.0052 5.91143L10.4271 5.28123C8.84896 3.55206 7.89583 2.7031 7.03125 2.7031ZM30.5677 42.2656C29.5 42.2656 28.474 42.1354 27.5573 41.9166C26.4115 41.651 25.2396 41.2552 24.0677 40.7448C18.3958 38.2708 13.625 33.9427 10.625 30.7448C7.60417 27.5677 3.55208 22.5521 1.39063 16.7396C0.947918 15.5364 0.614584 14.3437 0.411459 13.1823C-0.135416 10.1094 0.312501 5.85414 3.21875 3.13018L3.54167 2.82289C3.94271 2.43748 4.57292 1.83852 4.59896 1.81768C7.50521 -0.744815 10.1042 2.10935 11.8229 3.99477L12.3906 4.61456C14.1146 6.46873 17.0052 9.5781 16.474 12.651C16.2917 13.6979 15.6354 14.5416 15.0625 15.2812C14.651 15.8125 14.2604 16.3073 14.0729 16.8177C13.5104 18.3073 13.7448 19.8125 14.7396 21.1719C15.5156 22.2239 16.4323 23.3021 17.3906 24.2969C18.3385 25.3229 19.3646 26.2969 20.3698 27.1302C21.6667 28.2031 23.1563 28.5156 24.6719 28.0364C25.1875 27.8698 25.7031 27.5104 26.25 27.1302C27.0208 26.5885 27.8906 25.9791 28.9479 25.8541C32.0365 25.4844 34.9688 28.5469 36.724 30.375L37.3073 30.9739C39.0938 32.7969 41.7969 35.5521 39.0938 38.3281C39.0521 38.3698 38.4167 38.9739 38.0156 39.3489L37.7083 39.6458C35.7135 41.5729 33.0365 42.2656 30.5677 42.2656Z" fill="#125B50"/>
</svg>
